<svg xmlns="http://www.w3.org/2000/svg" version="1.1" xmlns:xlink="http://www.w3.org/1999/xlink" xmlns:svgjs="http://svgjs.com/svgjs" width="512" height="512" x="0" y="0" viewBox="0 0 512 512" style="enable-background:new 0 0 512 512" xml:space="preserve" class=""><g><path xmlns="http://www.w3.org/2000/svg" id="XMLID_3192_" d="m439.833 412c34.334 0 62.167-27.833 62.167-62.167s-27.833-62.167-62.167-62.167c-3.886 0-7.682.374-11.37 1.056 1.923-7.264 2.953-14.891 2.953-22.76 0-48.992-39.716-88.708-88.708-88.708-4.14 0-8.213.29-12.202.839-11.043-44.836-51.515-78.093-99.761-78.093-56.745 0-102.745 46-102.745 102.745 0 1.647.043 3.283.119 4.911-5.016-.753-10.149-1.146-15.375-1.146-56.744 0-102.744 46.001-102.744 102.745s46 102.745 102.745 102.745z" fill="#dff6fc" data-original="#dff6fc"></path><path xmlns="http://www.w3.org/2000/svg" id="XMLID_3189_" d="m462 170.695c0-28.932-70.214-48.272-70.214-48.272v-58.423s70.214 19.34 70.214 48.272z" fill="#91d9b9" data-original="#91d9b9"></path><circle xmlns="http://www.w3.org/2000/svg" id="XMLID_3186_" cx="350.893" cy="200.932" fill="#91d9b9" r="40.893" data-original="#91d9b9"></circle><path xmlns="http://www.w3.org/2000/svg" id="XMLID_3183_" d="m176.065 159.672h-140.003c-14.394 0-26.062-11.668-26.062-26.062v-97.548c0-14.394 11.668-26.062 26.062-26.062h140.003c14.394 0 26.062 11.668 26.062 26.062v97.548c0 14.394-11.668 26.062-26.062 26.062z" fill="#f5737f" data-original="#f5737f"></path><path xmlns="http://www.w3.org/2000/svg" id="XMLID_3180_" d="m134.883 92.198-40.115 25.713c-5.952 3.814-13.768-.459-13.768-7.529v-51.425c0-7.069 7.816-11.343 13.768-7.529l40.115 25.713c5.489 3.518 5.489 11.539 0 15.057z" fill="#ffffff" data-original="#ffffff"></path><path xmlns="http://www.w3.org/2000/svg" id="XMLID_2081_" d="m180.467 368 75.533 134 75.533-134h-36.12v-90h-6.568-65.69-6.569v90z" fill="#ffcb7c" data-original="#ffcb7c"></path><path xmlns="http://www.w3.org/2000/svg" id="XMLID_630_" d="m440.724 277.673c.461-3.879.692-7.79.692-11.71 0-31.398-14.694-60.465-39.63-79.077v-50.73c6.037 2.144 13.55 5.074 20.989 8.67 18.3 8.844 29.225 18.515 29.225 25.869 0 5.523 4.478 10 10 10s10-4.477 10-10v-58.423c0-16.168-13.717-30.971-40.769-43.996-18.158-8.742-36.037-13.71-36.79-13.917-3.012-.827-6.233-.204-8.715 1.687-2.483 1.891-3.94 4.833-3.94 7.955v33.757 24.666 38.103c-8.573-6.571-19.282-10.488-30.894-10.488-6.588 0-12.88 1.272-18.664 3.561-8.425-17.408-21.151-32.324-37.196-43.481-18.925-13.162-41.155-20.119-64.287-20.119-6.257 0-12.487.523-18.618 1.542v-55.48c0-19.885-16.178-36.062-36.063-36.062h-140.001c-19.885 0-36.063 16.177-36.063 36.062v97.548c0 19.885 16.178 36.062 36.063 36.062h86.866c-2.683 8.735-4.28 17.752-4.768 26.967-1.807-.086-3.613-.129-5.416-.129-62.168 0-112.745 50.577-112.745 112.745 0 12.716 2.104 25.2 6.251 37.105 1.438 4.127 5.307 6.713 9.443 6.713 1.091 0 2.201-.181 3.29-.56 5.216-1.817 7.971-7.518 6.153-12.733-3.408-9.785-5.137-20.055-5.137-30.525 0-51.14 41.605-92.745 92.745-92.745 4.64 0 9.313.348 13.891 1.035 2.956.445 5.963-.461 8.185-2.466s3.428-4.901 3.288-7.891c-.072-1.534-.108-3.029-.108-4.443 0-11.437 2.041-22.54 6.068-33.072h31.997c19.885 0 36.063-16.177 36.063-36.062v-21.732c6.098-1.241 12.338-1.879 18.618-1.879 36.884 0 69.563 21.283 84.549 54.608-9.431 9.243-15.296 22.108-15.296 36.324 0 28.063 22.83 50.893 50.893 50.893 24.101 0 44.328-16.845 49.563-39.375 13.355 14.375 20.96 33.343 20.96 53.514 0 6.837-.882 13.633-2.62 20.201-.877 3.312.003 6.843 2.332 9.355s5.781 3.654 9.152 3.037c3.192-.591 6.406-.89 9.553-.89 28.765 0 52.167 23.401 52.167 52.166s-23.402 52.167-52.167 52.167h-115.986l16.397-29.09c1.746-3.096 1.717-6.886-.076-9.955-1.793-3.068-5.08-4.955-8.635-4.955h-26.12v-80c0-5.522-4.478-10-10-10h-78.826c-5.522 0-10 4.478-10 10v80h-26.12c-3.555 0-6.842 1.887-8.635 4.955-1.793 3.069-1.822 6.859-.076 9.955l16.397 29.09h-75.408c-11.095 0-21.943-1.937-32.242-5.755-5.178-1.918-10.933.721-12.853 5.899s.721 10.933 5.899 12.853c12.533 4.647 25.72 7.003 39.196 7.003h86.682l47.862 84.91c1.772 3.145 5.102 5.09 8.711 5.09s6.938-1.945 8.711-5.09l47.862-84.91h127.26c39.793 0 72.167-32.374 72.167-72.167 0-39.496-31.891-71.684-71.276-72.16zm-248.597-144.063c0 8.856-7.206 16.062-16.063 16.062h-140.001c-8.856 0-16.063-7.206-16.063-16.062v-97.548c0-8.856 7.206-16.062 16.063-16.062h140.002c8.856 0 16.063 7.206 16.063 16.062v97.548zm209.659-55.878c6.036 2.144 13.553 5.076 20.989 8.67 18.3 8.844 29.225 18.515 29.225 25.869v26.643c-5.712-4.225-12.637-8.3-20.769-12.215-11.263-5.422-22.417-9.393-29.445-11.676v-17.266zm-50.893 154.093c-17.034 0-30.893-13.858-30.893-30.893s13.858-30.893 30.893-30.893 30.894 13.858 30.894 30.893-13.859 30.893-30.894 30.893zm-94.893 249.81-58.417-103.635h19.004c5.522 0 10-4.478 10-10v-80h58.826v80c0 5.522 4.478 10 10 10h19.004z" fill="#000000" data-original="#000000"></path><path xmlns="http://www.w3.org/2000/svg" id="XMLID_636_" d="m140.279 68.722-40.115-25.713c-5.833-3.739-13.232-3.996-19.31-.673-6.078 3.324-9.854 9.693-9.854 16.621v51.425c0 6.928 3.776 13.297 9.854 16.621 2.84 1.552 5.967 2.323 9.088 2.323 3.561 0 7.114-1.004 10.222-2.996l40.115-25.712c5.461-3.5 8.721-9.462 8.721-15.948s-3.261-12.448-8.721-15.948zm-49.279 39.726v-47.557l37.098 23.778z" fill="#000000" data-original="#000000"></path><path xmlns="http://www.w3.org/2000/svg" id="XMLID_637_" d="m71.372 309.255c0-22.813 18.56-41.372 41.373-41.372 5.522 0 10-4.478 10-10 0-5.523-4.478-10-10-10-33.841 0-61.373 27.531-61.373 61.372 0 5.522 4.478 10 10 10s10-4.478 10-10z" fill="#000000" data-original="#000000"></path><path xmlns="http://www.w3.org/2000/svg" id="XMLID_638_" d="m39.76 371.569c-2.63 0-5.2 1.07-7.07 2.931-1.859 1.859-2.93 4.439-2.93 7.069 0 2.631 1.07 5.211 2.93 7.07 1.87 1.86 4.44 2.93 7.07 2.93 2.64 0 5.21-1.069 7.08-2.93 1.86-1.859 2.93-4.439 2.93-7.07 0-2.63-1.069-5.21-2.93-7.069-1.87-1.86-4.441-2.931-7.08-2.931z" fill="#000000" data-original="#000000"></path></g></svg>